<?xml version="1.0" standalone="no"?>
<!DOCTYPE svg PUBLIC "-//W3C//DTD SVG 20010904//EN"
 "http://www.w3.org/TR/2001/REC-SVG-20010904/DTD/svg10.dtd">
<svg version="1.0" xmlns="http://www.w3.org/2000/svg"
 width="256.000000pt" height="256.000000pt" viewBox="0 0 256.000000 256.000000"
 preserveAspectRatio="xMidYMid meet">

<g transform="translate(0.000000,256.000000) scale(0.100000,-0.100000)"
fill="#000000" stroke="none">
<path d="M130 1535 l0 -515 745 0 745 0 0 515 0 515 -745 0 -745 0 0 -515z
m771 298 c35 -27 152 -107 259 -178 180 -121 195 -133 195 -160 0 -28 -14 -39
-255 -187 -140 -87 -263 -158 -273 -158 -10 0 -27 5 -38 10 -17 10 -19 22 -19
130 l0 120 -195 0 -195 0 0 105 0 105 195 0 195 0 0 113 c0 114 4 130 30 140
29 11 38 7 101 -40z"/>
<path d="M1660 1510 l0 -530 -427 0 -428 0 50 -24 c52 -24 112 -83 139 -135 9
-17 19 -54 24 -83 l7 -53 296 -3 296 -2 7 42 c23 145 145 258 278 258 136 0
240 -94 269 -243 l12 -59 78 4 c70 3 81 6 109 33 57 54 60 67 60 270 0 208
-14 292 -85 495 -92 263 -134 299 -359 309 l-130 6 -24 59 c-13 33 -36 78 -53
102 -27 40 -84 84 -108 84 -8 0 -11 -142 -11 -530z m499 91 c52 -52 92 -188
94 -324 2 -77 1 -82 -20 -85 -12 -2 -45 10 -75 26 -75 42 -113 52 -225 60
l-98 7 -3 155 c-1 85 0 160 2 167 4 10 42 13 156 13 133 0 152 -2 169 -19z"/>
<path d="M130 897 c0 -78 2 -85 28 -110 35 -33 101 -62 198 -87 106 -27 114
-26 114 10 0 46 37 132 75 177 19 23 58 53 87 67 l52 26 -277 0 -277 0 0 -83z"/>
<path d="M690 931 c-126 -39 -201 -163 -170 -281 26 -100 103 -167 204 -177
183 -19 312 170 230 335 -30 61 -74 98 -140 118 -51 15 -85 17 -124 5z"/>
<path d="M1840 931 c-108 -33 -173 -119 -173 -231 -1 -194 234 -301 382 -173
138 118 92 346 -80 397 -56 17 -89 19 -129 7z"/>
</g>
</svg>
