<?xml version="1.0" standalone="no"?>
<!DOCTYPE svg PUBLIC "-//W3C//DTD SVG 20010904//EN"
 "http://www.w3.org/TR/2001/REC-SVG-20010904/DTD/svg10.dtd">
<svg version="1.0" xmlns="http://www.w3.org/2000/svg"
 width="225.000000pt" height="225.000000pt" viewBox="0 0 225.000000 225.000000"
 preserveAspectRatio="xMidYMid meet">

<g transform="translate(0.000000,225.000000) scale(0.100000,-0.100000)"
fill="#000000" stroke="none">
<path d="M970 1651 c-12 -23 -14 -669 -2 -687 20 -31 54 -34 380 -34 295 0
331 2 343 17 24 28 100 56 154 56 54 0 130 -28 154 -56 19 -23 133 -24 155 -1
14 13 16 59 16 350 0 212 -4 342 -10 355 -10 18 -28 19 -595 19 -567 0 -585
-1 -595 -19z m964 -201 c-38 -37 -478 -410 -484 -410 -3 0 -68 73 -144 162
-150 174 -148 169 -89 215 l31 24 107 -125 107 -125 206 179 207 179 39 -41
c38 -39 38 -40 20 -58z"/>
<path d="M503 1511 c-27 -5 -46 -27 -128 -143 l-97 -136 -65 -23 c-47 -17 -68
-30 -74 -47 -12 -32 -12 -32 16 -32 23 0 25 -4 25 -44 l0 -45 -42 -3 c-36 -3
-43 -7 -48 -28 -3 -14 -19 -32 -35 -40 l-30 -15 6 -79 c5 -60 11 -83 25 -93
29 -21 44 -16 44 15 0 46 47 128 93 162 53 39 108 54 173 47 62 -6 100 -25
144 -69 62 -62 86 -158 61 -246 l-10 -32 534 0 533 0 -15 43 c-14 39 -12 111
3 152 5 13 -38 15 -340 15 l-346 0 0 325 0 325 -197 -1 c-109 -1 -212 -4 -230
-8z m307 -166 l0 -115 -131 0 c-116 0 -133 -2 -147 -19 -13 -14 -35 -20 -89
-24 -40 -2 -73 -1 -73 3 0 4 35 63 78 131 90 143 77 136 250 138 l112 1 0
-115z"/>
<path d="M265 941 c-47 -22 -89 -64 -104 -104 -23 -60 -6 -153 37 -200 67 -74
217 -74 284 0 43 47 60 140 37 200 -24 64 -109 123 -179 123 -19 0 -53 -9 -75
-19z m138 -91 c38 -30 52 -80 33 -123 -15 -37 -59 -67 -96 -67 -62 0 -118 70
-105 131 15 68 112 103 168 59z"/>
<path d="M1785 948 c-80 -29 -128 -97 -128 -183 0 -56 12 -85 52 -128 39 -43
74 -57 139 -57 171 0 254 200 133 321 -53 53 -128 71 -196 47z m136 -107 c23
-23 29 -38 29 -71 0 -35 -6 -48 -35 -77 -32 -32 -39 -35 -78 -30 -135 18 -125
206 11 207 35 0 49 -6 73 -29z"/>
<path d="M2076 838 c5 -18 9 -50 9 -70 0 -44 4 -45 81 -22 45 13 54 19 54 38
0 13 3 38 6 55 l7 31 -83 0 -82 0 8 -32z"/>
</g>
</svg>
